# xmcd
#
# Track frame offsets:
#	150
#	14117
#	34792
#	52885
#	70917
#	79747
#	101117
#	133990
#	154687
#	187342
#	201355
#	213475
#	219665
#	225255
#
# Disc length: 3309 seconds
#
# Revision: 1
# Processed by: cddbd v1.5.1PL0 Copyright (c) Steve Scherf et al.
# Submitted via: CDex 1.50Beta5
#
DISCID=d10ceb0e
DTITLE=レッキンクルー - レッキンクルー
DYEAR=2001
DGENRE=Rock
TTITLE0=テーマ
TTITLE1=PART2
TTITLE2=グリグリ
TTITLE3=Egypt Egypt featuring 全裸ROCK
TTITLE4=コンボイ
TTITLE5=湯煙FUNKオリジナル
TTITLE6=GG
TTITLE7=MFBS
TTITLE8=HUSTLIN’
TTITLE9=opticalbases
TTITLE10=M2K
TTITLE11=VS:BLUES〜ARI1010〜
TTITLE12=1234
TTITLE13=ブンブン!??!(16連打REMIX)
EXTD=
EXTT0=
EXTT1=
EXTT2=
EXTT3=
EXTT4=
EXTT5=
EXTT6=
EXTT7=
EXTT8=
EXTT9=
EXTT10=
EXTT11=
EXTT12=
EXTT13=
PLAYORDER=
